<svg xmlns="http://www.w3.org/2000/svg" width="16" height="17" viewBox="0 0 16 17" fill="none">
  <path d="M7.46427 2.07129H8.5357C8.63093 2.07129 8.67855 2.11891 8.67855 2.21415V14.7856C8.67855 14.8808 8.63093 14.9284 8.5357 14.9284H7.46427C7.36903 14.9284 7.32141 14.8808 7.32141 14.7856V2.21415C7.32141 2.11891 7.36903 2.07129 7.46427 2.07129Z" fill="#FF7A00"/>
  <path d="M1.99997 7.82129H14C14.0952 7.82129 14.1428 7.86891 14.1428 7.96415V9.03557C14.1428 9.13081 14.0952 9.17843 14 9.17843H1.99997C1.90474 9.17843 1.85712 9.13081 1.85712 9.03557V7.96415C1.85712 7.86891 1.90474 7.82129 1.99997 7.82129Z" fill="#FF7A00"/>
</svg>