<svg xmlns="http://www.w3.org/2000/svg" width="24" height="25" viewBox="0 0 24 25" fill="none">
  <g clip-path="url(#clip0_851_24627)">
    <path d="M21.6 0.5H2.4C1.08 0.5 0 1.58 0 2.9V24.5L4.8 19.7H21.6C22.92 19.7 24 18.62 24 17.3V2.9C24 1.58 22.92 0.5 21.6 0.5ZM12 11.3C11.34 11.3 10.8 10.76 10.8 10.1V5.3C10.8 4.64 11.34 4.1 12 4.1C12.66 4.1 13.2 4.64 13.2 5.3V10.1C13.2 10.76 12.66 11.3 12 11.3ZM13.2 16.1H10.8V13.7H13.2V16.1Z" fill="#FF7A00"/>
  </g>
  <defs>
    <clipPath id="clip0_851_24627">
      <rect width="24" height="24" fill="white" transform="translate(0 0.5)"/>
    </clipPath>
  </defs>
</svg>