<svg xmlns="http://www.w3.org/2000/svg" width="18" height="18" viewBox="0 0 18 18" fill="none">
  <g clip-path="url(#clip0_1029_23779)">
    <path fill-rule="evenodd" clip-rule="evenodd" d="M16.875 2.25C16.875 1.95163 16.7565 1.66548 16.5455 1.4545C16.3345 1.24353 16.0484 1.125 15.75 1.125H2.25C1.95163 1.125 1.66548 1.24353 1.4545 1.4545C1.24353 1.66548 1.125 1.95163 1.125 2.25V15.75C1.125 16.0484 1.24353 16.3345 1.4545 16.5455C1.66548 16.7565 1.95163 16.875 2.25 16.875H15.75C16.0484 16.875 16.3345 16.7565 16.5455 16.5455C16.7565 16.3345 16.875 16.0484 16.875 15.75V2.25ZM0 2.25C0 1.65326 0.237053 1.08097 0.65901 0.65901C1.08097 0.237053 1.65326 0 2.25 0L15.75 0C16.3467 0 16.919 0.237053 17.341 0.65901C17.7629 1.08097 18 1.65326 18 2.25V15.75C18 16.3467 17.7629 16.919 17.341 17.341C16.919 17.7629 16.3467 18 15.75 18H2.25C1.65326 18 1.08097 17.7629 0.65901 17.341C0.237053 16.919 0 16.3467 0 15.75V2.25ZM6.58575 5.78925C6.48013 5.68363 6.33687 5.62429 6.1875 5.62429C6.03813 5.62429 5.89487 5.68363 5.78925 5.78925C5.68363 5.89487 5.62429 6.03813 5.62429 6.1875C5.62429 6.33687 5.68363 6.48013 5.78925 6.58575L10.3984 11.1937H7.28437C7.13519 11.1937 6.99212 11.253 6.88663 11.3585C6.78114 11.464 6.72187 11.6071 6.72187 11.7562C6.72187 11.9054 6.78114 12.0485 6.88663 12.154C6.99212 12.2595 7.13519 12.3187 7.28437 12.3187H11.7562C11.9054 12.3187 12.0485 12.2595 12.154 12.154C12.2595 12.0485 12.3187 11.9054 12.3187 11.7562V7.28437C12.3187 7.13519 12.2595 6.99212 12.154 6.88663C12.0485 6.78114 11.9054 6.72187 11.7562 6.72187C11.6071 6.72187 11.464 6.78114 11.3585 6.88663C11.253 6.99212 11.1937 7.13519 11.1937 7.28437V10.3984L6.58575 5.78925Z" fill="#FF7A00"/>
  </g>
  <defs>
    <clipPath id="clip0_1029_23779">
      <rect width="18" height="18" fill="white"/>
    </clipPath>
  </defs>
</svg>