<svg xmlns="http://www.w3.org/2000/svg" width="21" height="18" viewBox="0 0 21 18" fill="none">
  <path d="M3.83333 4.00033H5.5V14.0003H3.83333V4.00033ZM6.33333 4.00033H7.16667V14.0003H6.33333V4.00033ZM8 4.00033H10.5V14.0003H8V4.00033ZM11.3333 4.00033H12.1667V14.0003H11.3333V4.00033ZM13.8333 4.00033H15.5V14.0003H13.8333V4.00033ZM16.3333 4.00033H17.1667V14.0003H16.3333V4.00033ZM2.16667 2.33366V5.66699H0.5V2.33366C0.5 1.89163 0.675595 1.46771 0.988155 1.15515C1.30072 0.842587 1.72464 0.666992 2.16667 0.666992H5.5V2.33366H2.16667ZM18.8333 0.666992C19.2754 0.666992 19.6993 0.842587 20.0118 1.15515C20.3244 1.46771 20.5 1.89163 20.5 2.33366V5.66699H18.8333V2.33366H15.5V0.666992H18.8333ZM2.16667 12.3337V15.667H5.5V17.3337H2.16667C1.72464 17.3337 1.30072 17.1581 0.988155 16.8455C0.675595 16.5329 0.5 16.109 0.5 15.667V12.3337H2.16667ZM18.8333 15.667V12.3337H20.5V15.667C20.5 16.109 20.3244 16.5329 20.0118 16.8455C19.6993 17.1581 19.2754 17.3337 18.8333 17.3337H15.5V15.667H18.8333Z" fill="#FF7A00"/>
</svg>