<svg xmlns="http://www.w3.org/2000/svg" width="16" height="16" viewBox="0 0 16 16" fill="none">
  <g clip-path="url(#clip0_1213_24592)">
    <path d="M8.00031 0C3.58245 0 0.000305176 3.58214 0.000305176 8C0.000305176 12.4179 3.58245 16 8.00031 16C12.4182 16 16.0003 12.4179 16.0003 8C16.0003 3.58214 12.4182 0 8.00031 0ZM11.4289 8.42857C11.4289 8.50714 11.3646 8.57143 11.286 8.57143H8.57173V11.2857C8.57173 11.3643 8.50745 11.4286 8.42888 11.4286H7.57173C7.49316 11.4286 7.42888 11.3643 7.42888 11.2857V8.57143H4.71459C4.63602 8.57143 4.57173 8.50714 4.57173 8.42857V7.57143C4.57173 7.49286 4.63602 7.42857 4.71459 7.42857H7.42888V4.71429C7.42888 4.63571 7.49316 4.57143 7.57173 4.57143H8.42888C8.50745 4.57143 8.57173 4.63571 8.57173 4.71429V7.42857H11.286C11.3646 7.42857 11.4289 7.49286 11.4289 7.57143V8.42857Z" fill="#FF7A00"/>
  </g>
  <defs>
    <clipPath id="clip0_1213_24592">
      <rect width="16" height="16" fill="white" transform="translate(0.000305176)"/>
    </clipPath>
  </defs>
</svg>