<svg xmlns="http://www.w3.org/2000/svg" width="19" height="18" viewBox="0 0 19 18" fill="none">
  <g clip-path="url(#clip0_1637_10997)">
    <path d="M13.1964 8.35735H10.1429V5.30378C10.1429 5.21539 10.0705 5.14307 9.98214 5.14307H9.01785C8.92946 5.14307 8.85714 5.21539 8.85714 5.30378V8.35735H5.80357C5.71517 8.35735 5.64285 8.42967 5.64285 8.51807V9.48235C5.64285 9.57075 5.71517 9.64307 5.80357 9.64307H8.85714V12.6966C8.85714 12.785 8.92946 12.8574 9.01785 12.8574H9.98214C10.0705 12.8574 10.1429 12.785 10.1429 12.6966V9.64307H13.1964C13.2848 9.64307 13.3571 9.57075 13.3571 9.48235V8.51807C13.3571 8.42967 13.2848 8.35735 13.1964 8.35735Z" fill="#FF7A00"/>
    <path d="M9.5 0C4.52991 0 0.5 4.02991 0.5 9C0.5 13.9701 4.52991 18 9.5 18C14.4701 18 18.5 13.9701 18.5 9C18.5 4.02991 14.4701 0 9.5 0ZM9.5 16.4732C5.37366 16.4732 2.02679 13.1263 2.02679 9C2.02679 4.87366 5.37366 1.52679 9.5 1.52679C13.6263 1.52679 16.9732 4.87366 16.9732 9C16.9732 13.1263 13.6263 16.4732 9.5 16.4732Z" fill="#FF7A00"/>
  </g>
  <defs>
    <clipPath id="clip0_1637_10997">
      <rect width="18" height="18" fill="white" transform="translate(0.5)"/>
    </clipPath>
  </defs>
</svg>