<svg xmlns="http://www.w3.org/2000/svg" width="16" height="17" viewBox="0 0 16 17" fill="none">
  <path d="M8 0.5C3.58214 0.5 0 4.08214 0 8.5C0 12.9179 3.58214 16.5 8 16.5C12.4179 16.5 16 12.9179 16 8.5C16 4.08214 12.4179 0.5 8 0.5ZM10.7625 8.61607L6.36964 11.7946C6.275 11.8625 6.14286 11.7946 6.14286 11.6786V10.8411C6.14286 10.6589 6.23036 10.4857 6.37857 10.3786L8.975 8.5L6.37857 6.62143C6.23036 6.51429 6.14286 6.34286 6.14286 6.15893V5.32143C6.14286 5.20536 6.275 5.1375 6.36964 5.20536L10.7625 8.38393C10.8411 8.44107 10.8411 8.55893 10.7625 8.61607Z" fill="#FF7A00"/>
</svg>