<svg xmlns="http://www.w3.org/2000/svg" width="13" height="14" viewBox="0 0 13 14" fill="none">
  <path d="M7.57167 7L12.9608 0.761196C13.0512 0.657515 12.9752 0.5 12.8356 0.5H11.1973C11.1008 0.5 11.0084 0.541871 10.9448 0.61365L6.5 5.75981L2.05523 0.61365C1.99364 0.541871 1.90125 0.5 1.80271 0.5H0.164406C0.0248007 0.5 -0.0511609 0.657515 0.0391717 0.761196L5.42833 7L0.0391717 13.2388C0.0189364 13.2619 0.00595463 13.2902 0.00176724 13.3202C-0.00242016 13.3503 0.00236267 13.3809 0.0155484 13.4084C0.0287341 13.4359 0.0497688 13.4591 0.0761548 13.4754C0.102541 13.4916 0.13317 13.5002 0.164406 13.5H1.80271C1.8992 13.5 1.99159 13.4581 2.05523 13.3863L6.5 8.24018L10.9448 13.3863C11.0064 13.4581 11.0987 13.5 11.1973 13.5H12.8356C12.9752 13.5 13.0512 13.3425 12.9608 13.2388L7.57167 7Z" fill="#FF7A00"/>
</svg>