<svg xmlns="http://www.w3.org/2000/svg" width="16" height="17" viewBox="0 0 16 17" fill="none">
  <g clip-path="url(#clip0_264_16122)">
    <path d="M8 0.5C3.58214 0.5 0 4.08214 0 8.5C0 12.9179 3.58214 16.5 8 16.5C12.4179 16.5 16 12.9179 16 8.5C16 4.08214 12.4179 0.5 8 0.5ZM4.70179 11.9C4.66607 11.9161 4.62321 11.9 4.60714 11.8625C4.6 11.8446 4.6 11.8232 4.60714 11.8054L6.36964 7.77857L8.72857 10.1375L4.70179 11.9ZM11.4 5.20179L9.6375 9.22857L7.27857 6.86964L11.3054 5.10714C11.3411 5.09107 11.3839 5.10714 11.4 5.14464C11.4071 5.1625 11.4071 5.18214 11.4 5.20179Z" fill="#FF7A00"/>
  </g>
  <defs>
    <clipPath id="clip0_264_16122">
      <rect width="16" height="16" fill="white" transform="translate(0 0.5)"/>
    </clipPath>
  </defs>
</svg>