<svg xmlns="http://www.w3.org/2000/svg" width="24" height="24" viewBox="0 0 24 24" fill="none">
  <path d="M23.0571 8.208C22.4548 6.61113 21.5815 5.16032 20.4857 3.936C19.3926 2.70873 18.0972 1.73065 16.6714 1.056C15.1902 0.354 13.6205 0 12 0C10.3795 0 8.80982 0.354 7.32857 1.056C5.90279 1.73065 4.60743 2.70873 3.51429 3.936C2.4185 5.16032 1.54523 6.61113 0.942857 8.208C0.316071 9.867 0 11.625 0 13.44C0 17.421 1.56161 21.171 4.28304 23.733L4.32857 23.775C4.48393 23.919 4.67946 24 4.88036 24H19.1223C19.3232 24 19.5187 23.919 19.6741 23.775L19.7196 23.733C22.4384 21.171 24 17.421 24 13.44C24 11.625 23.6812 9.867 23.0571 8.208ZM18.6804 21.72H5.31964C4.28463 20.6748 3.45741 19.3975 2.89167 17.971C2.32593 16.5446 2.0343 15.0008 2.03571 13.44C2.03571 10.458 3.07232 7.656 4.95536 5.55C6.83839 3.441 9.34018 2.28 12 2.28C14.6625 2.28 17.1643 3.441 19.0446 5.55C20.9277 7.659 21.9643 10.461 21.9643 13.44C21.9643 16.608 20.7723 19.605 18.6804 21.72ZM14.9866 9.285C14.9463 9.24034 14.8919 9.21528 14.8353 9.21528C14.7786 9.21528 14.7242 9.24034 14.6839 9.285L12.4205 11.82C11.9196 11.67 11.3652 11.814 10.9714 12.255C10.832 12.4109 10.7213 12.5961 10.6458 12.7999C10.5703 13.0038 10.5315 13.2223 10.5315 13.443C10.5315 13.6637 10.5703 13.8822 10.6458 14.0861C10.7213 14.2899 10.832 14.4751 10.9714 14.631C11.1106 14.7872 11.276 14.9111 11.458 14.9957C11.64 15.0802 11.8351 15.1237 12.0321 15.1237C12.2292 15.1237 12.4243 15.0802 12.6063 14.9957C12.7883 14.9111 12.9537 14.7872 13.0929 14.631C13.2794 14.4227 13.4136 14.1629 13.4818 13.8779C13.55 13.593 13.5498 13.2929 13.4812 13.008L15.7446 10.473C15.8277 10.38 15.8277 10.227 15.7446 10.134L14.9866 9.285ZM11.4107 6.24H12.5893C12.7071 6.24 12.8036 6.132 12.8036 6V3.6C12.8036 3.468 12.7071 3.36 12.5893 3.36H11.4107C11.2929 3.36 11.1964 3.468 11.1964 3.6V6C11.1964 6.132 11.2929 6.24 11.4107 6.24ZM18.375 12.78V14.1C18.375 14.232 18.4714 14.34 18.5893 14.34H20.7321C20.85 14.34 20.9464 14.232 20.9464 14.1V12.78C20.9464 12.648 20.85 12.54 20.7321 12.54H18.5893C18.4714 12.54 18.375 12.648 18.375 12.78ZM18.7152 6.864L17.8821 5.931C17.8419 5.88634 17.7875 5.86128 17.7308 5.86128C17.6741 5.86128 17.6197 5.88634 17.5795 5.931L16.0634 7.629C16.0235 7.67411 16.0011 7.73502 16.0011 7.7985C16.0011 7.86198 16.0235 7.92289 16.0634 7.968L16.8964 8.901C16.9795 8.994 17.1161 8.994 17.1991 8.901L18.7152 7.203C18.7982 7.11 18.7982 6.957 18.7152 6.864ZM6.43125 5.931C6.39098 5.88634 6.33659 5.86128 6.27991 5.86128C6.22323 5.86128 6.16885 5.88634 6.12857 5.931L5.29554 6.864C5.25566 6.90911 5.23329 6.97002 5.23329 7.0335C5.23329 7.09698 5.25566 7.15789 5.29554 7.203L6.81161 8.901C6.89464 8.994 7.03125 8.994 7.11429 8.901L7.94732 7.968C8.03036 7.875 8.03036 7.722 7.94732 7.629L6.43125 5.931ZM5.30357 12.54H3.16071C3.04286 12.54 2.94643 12.648 2.94643 12.78V14.1C2.94643 14.232 3.04286 14.34 3.16071 14.34H5.30357C5.42143 14.34 5.51786 14.232 5.51786 14.1V12.78C5.51786 12.648 5.42143 12.54 5.30357 12.54Z" fill="black"/>
</svg>