<svg xmlns="http://www.w3.org/2000/svg" width="16" height="16" viewBox="0 0 16 16" fill="none">
  <path d="M8.5107 7.55227L2.35928 0.138636C2.28699 0.0500001 2.17375 0 2.05568 0H0.193149C0.0317132 0 -0.057438 0.175 0.041351 0.293182L6.43614 8L0.041351 15.7068C0.0191038 15.7336 0.00529967 15.7658 0.00151705 15.7996C-0.00226558 15.8335 0.00412614 15.8676 0.019961 15.8982C0.0357959 15.9288 0.0604351 15.9546 0.0910615 15.9726C0.121688 15.9906 0.157065 16.0001 0.193149 16H2.05568C2.17375 16 2.28699 15.9477 2.35928 15.8614L8.5107 8.45C8.72997 8.18409 8.72997 7.81591 8.5107 7.55227ZM15.8356 7.55227L9.68413 0.138636C9.61184 0.0500001 9.4986 0 9.38053 0H7.518C7.35656 0 7.26741 0.175 7.3662 0.293182L13.761 8L7.3662 15.7068C7.34395 15.7336 7.33015 15.7658 7.32636 15.7996C7.32258 15.8335 7.32897 15.8676 7.34481 15.8982C7.36064 15.9288 7.38528 15.9546 7.41591 15.9726C7.44653 15.9906 7.48191 16.0001 7.518 16H9.38053C9.4986 16 9.61184 15.9477 9.68413 15.8614L15.8356 8.45C16.0548 8.18409 16.0548 7.81591 15.8356 7.55227Z" fill="#FF7A00"/>
</svg>