<svg xmlns="http://www.w3.org/2000/svg" width="16" height="16" viewBox="0 0 16 16" fill="none">
  <path d="M15.3597 14.48H0.639725C0.285725 14.48 -0.000274658 14.766 -0.000274658 15.12V15.84C-0.000274658 15.928 0.0717253 16 0.159725 16H15.8397C15.9277 16 15.9997 15.928 15.9997 15.84V15.12C15.9997 14.766 15.7137 14.48 15.3597 14.48ZM2.91373 12.8C2.95373 12.8 2.99373 12.796 3.03373 12.79L6.39773 12.2C6.43773 12.192 6.47573 12.174 6.50373 12.144L14.9817 3.666C15.0003 3.6475 15.015 3.62552 15.025 3.60133C15.035 3.57713 15.0402 3.55119 15.0402 3.525C15.0402 3.49881 15.035 3.47287 15.025 3.44867C15.015 3.42448 15.0003 3.4025 14.9817 3.384L11.6577 0.058C11.6197 0.02 11.5697 0 11.5157 0C11.4617 0 11.4117 0.02 11.3737 0.058L2.89573 8.536C2.86573 8.566 2.84773 8.602 2.83973 8.642L2.24973 12.006C2.23027 12.1131 2.23722 12.2234 2.26998 12.3273C2.30274 12.4311 2.36031 12.5254 2.43773 12.602C2.56973 12.73 2.73573 12.8 2.91373 12.8Z" fill="#FF7A00"/>
</svg>