<svg xmlns="http://www.w3.org/2000/svg" width="16" height="12" viewBox="0 0 16 12" fill="none">
  <path d="M5.87143 6C5.87143 6.5467 6.08796 7.07102 6.47338 7.45759C6.85879 7.84417 7.38153 8.06135 7.9266 8.06135C8.47166 8.06135 8.9944 7.84417 9.37982 7.45759C9.76524 7.07102 9.98176 6.5467 9.98176 6C9.98176 5.4533 9.76524 4.92898 9.37982 4.54241C8.9944 4.15583 8.47166 3.93865 7.9266 3.93865C7.38153 3.93865 6.85879 4.15583 6.47338 4.54241C6.08796 4.92898 5.87143 5.4533 5.87143 6ZM15.894 5.52515C14.1545 1.84969 11.525 0 8 0C4.47319 0 1.84551 1.84969 0.105961 5.52699C0.0361868 5.67518 0 5.83704 0 6.00092C0 6.1648 0.0361868 6.32666 0.105961 6.47485C1.84551 10.1503 4.47502 12 8 12C11.5268 12 14.1545 10.1503 15.894 6.47301C16.0353 6.17485 16.0353 5.82883 15.894 5.52515ZM7.9266 9.23926C6.14301 9.23926 4.69705 7.78896 4.69705 6C4.69705 4.21104 6.14301 2.76074 7.9266 2.76074C9.71019 2.76074 11.1561 4.21104 11.1561 6C11.1561 7.78896 9.71019 9.23926 7.9266 9.23926Z" fill="#FF7A00"/>
</svg>