<svg xmlns="http://www.w3.org/2000/svg" width="16" height="12" viewBox="0 0 16 12" fill="none">
  <path d="M15.4283 4.78592H13.4997V2.75735C13.4997 2.44128 13.2444 2.18592 12.9283 2.18592H7.3033L5.20865 0.182352C5.182 0.157402 5.14695 0.143379 5.11044 0.143066H0.571154C0.255082 0.143066 -0.000274658 0.398424 -0.000274658 0.714495V11.2859C-0.000274658 11.602 0.255082 11.8574 0.571154 11.8574H13.0354C13.2676 11.8574 13.4783 11.7163 13.5658 11.5002L15.9587 5.57164C15.9854 5.50378 15.9997 5.43057 15.9997 5.35735C15.9997 5.04128 15.7444 4.78592 15.4283 4.78592ZM12.214 4.78592H3.10687C2.87473 4.78592 2.66401 4.92699 2.57651 5.14307L1.28544 8.34307V1.42878H4.65151L6.78723 3.47164H12.214V4.78592Z" fill="#FF7A00"/>
</svg>