<svg xmlns="http://www.w3.org/2000/svg" width="49" height="48" viewBox="0 0 49 48" fill="none">
  <g clip-path="url(#clip0_1294_33978)">
    <path d="M24.5 0C11.2464 0 0.5 10.7464 0.5 24C0.5 37.2536 11.2464 48 24.5 48C37.7536 48 48.5 37.2536 48.5 24C48.5 10.7464 37.7536 0 24.5 0ZM24.5 43.9286C13.4964 43.9286 4.57143 35.0036 4.57143 24C4.57143 12.9964 13.4964 4.07143 24.5 4.07143C35.5036 4.07143 44.4286 12.9964 44.4286 24C44.4286 35.0036 35.5036 43.9286 24.5 43.9286Z" fill="#FF7A00"/>
    <path d="M21.9286 33.4286C21.9286 34.1106 22.1995 34.7646 22.6817 35.2468C23.1639 35.7291 23.818 36 24.5 36C25.182 36 25.836 35.7291 26.3183 35.2468C26.8005 34.7646 27.0714 34.1106 27.0714 33.4286C27.0714 32.7466 26.8005 32.0925 26.3183 31.6103C25.836 31.1281 25.182 30.8571 24.5 30.8571C23.818 30.8571 23.1639 31.1281 22.6817 31.6103C22.1995 32.0925 21.9286 32.7466 21.9286 33.4286ZM23.2143 27.4286H25.7857C26.0214 27.4286 26.2143 27.2357 26.2143 27V12.4286C26.2143 12.1929 26.0214 12 25.7857 12H23.2143C22.9786 12 22.7857 12.1929 22.7857 12.4286V27C22.7857 27.2357 22.9786 27.4286 23.2143 27.4286Z" fill="#FF7A00"/>
  </g>
  <defs>
    <clipPath id="clip0_1294_33978">
      <rect width="48" height="48" fill="white" transform="translate(0.5)"/>
    </clipPath>
  </defs>
</svg>