<svg xmlns="http://www.w3.org/2000/svg" width="16" height="17" viewBox="0 0 16 17" fill="none">
  <path d="M12.1905 0.66C12.1905 0.572 12.1219 0.5 12.0381 0.5H3.96191C3.8781 0.5 3.80952 0.572 3.80952 0.66V3.62H12.1905V0.66ZM14.4762 4.9H1.52381C0.681905 4.9 0 5.616 0 6.5V13.06C0 13.414 0.272381 13.7 0.609524 13.7H3.80952V16.34C3.80952 16.428 3.8781 16.5 3.96191 16.5H12.0381C12.1219 16.5 12.1905 16.428 12.1905 16.34V13.7H15.3905C15.7276 13.7 16 13.414 16 13.06V6.5C16 5.616 15.3181 4.9 14.4762 4.9ZM10.8952 15.14H5.10476V9.62H10.8952V15.14ZM14.019 7.94C14.019 8.028 13.9505 8.1 13.8667 8.1H13.1048C13.021 8.1 12.9524 8.028 12.9524 7.94V7.14C12.9524 7.052 13.021 6.98 13.1048 6.98H13.8667C13.9505 6.98 14.019 7.052 14.019 7.14V7.94Z" fill="#FF7A00"/>
</svg>