<svg xmlns="http://www.w3.org/2000/svg" width="16" height="16" viewBox="0 0 16 16" fill="none">
  <path d="M7.08333 0H0.666667C0.297917 0 0 0.297917 0 0.666667V7.08333C0 7.175 0.075 7.25 0.166667 7.25H7.08333C7.175 7.25 7.25 7.175 7.25 7.08333V0.166667C7.25 0.075 7.175 0 7.08333 0ZM5.91667 5.91667H1.33333V1.33333H5.91667V5.91667ZM3.04167 4.375H4.20833C4.3 4.375 4.375 4.3 4.375 4.20833V3.04167C4.375 2.95 4.3 2.875 4.20833 2.875H3.04167C2.95 2.875 2.875 2.95 2.875 3.04167V4.20833C2.875 4.3 2.95 4.375 3.04167 4.375ZM7.08333 8.75H0.166667C0.075 8.75 0 8.825 0 8.91667V15.3333C0 15.7021 0.297917 16 0.666667 16H7.08333C7.175 16 7.25 15.925 7.25 15.8333V8.91667C7.25 8.825 7.175 8.75 7.08333 8.75ZM5.91667 14.6667H1.33333V10.0833H5.91667V14.6667ZM3.04167 13.125H4.20833C4.3 13.125 4.375 13.05 4.375 12.9583V11.7917C4.375 11.7 4.3 11.625 4.20833 11.625H3.04167C2.95 11.625 2.875 11.7 2.875 11.7917V12.9583C2.875 13.05 2.95 13.125 3.04167 13.125ZM15.3333 0H8.91667C8.825 0 8.75 0.075 8.75 0.166667V7.08333C8.75 7.175 8.825 7.25 8.91667 7.25H15.8333C15.925 7.25 16 7.175 16 7.08333V0.666667C16 0.297917 15.7021 0 15.3333 0ZM14.6667 5.91667H10.0833V1.33333H14.6667V5.91667ZM11.7917 4.375H12.9583C13.05 4.375 13.125 4.3 13.125 4.20833V3.04167C13.125 2.95 13.05 2.875 12.9583 2.875H11.7917C11.7 2.875 11.625 2.95 11.625 3.04167V4.20833C11.625 4.3 11.7 4.375 11.7917 4.375ZM15.8333 8.75H14.8333C14.7417 8.75 14.6667 8.825 14.6667 8.91667V11.7083H13.0417V8.91667C13.0417 8.825 12.9667 8.75 12.875 8.75H8.91667C8.825 8.75 8.75 8.825 8.75 8.91667V15.8333C8.75 15.925 8.825 16 8.91667 16H9.91667C10.0083 16 10.0833 15.925 10.0833 15.8333V10.75H11.7083V12.875C11.7083 12.9667 11.7833 13.0417 11.875 13.0417H15.8333C15.925 13.0417 16 12.9667 16 12.875V8.91667C16 8.825 15.925 8.75 15.8333 8.75ZM12.875 14.6667H11.875C11.7833 14.6667 11.7083 14.7417 11.7083 14.8333V15.8333C11.7083 15.925 11.7833 16 11.875 16H12.875C12.9667 16 13.0417 15.925 13.0417 15.8333V14.8333C13.0417 14.7417 12.9667 14.6667 12.875 14.6667ZM15.8333 14.6667H14.8333C14.7417 14.6667 14.6667 14.7417 14.6667 14.8333V15.8333C14.6667 15.925 14.7417 16 14.8333 16H15.8333C15.925 16 16 15.925 16 15.8333V14.8333C16 14.7417 15.925 14.6667 15.8333 14.6667Z" fill="black"/>
</svg>