<svg xmlns="http://www.w3.org/2000/svg" width="17" height="16" viewBox="0 0 17 16" fill="none">
  <path d="M7.58303 0H1.16636C0.797611 0 0.499695 0.297917 0.499695 0.666667V7.08333C0.499695 7.175 0.574695 7.25 0.666361 7.25H7.58303C7.6747 7.25 7.74969 7.175 7.74969 7.08333V0.166667C7.74969 0.075 7.6747 0 7.58303 0ZM6.41636 5.91667H1.83303V1.33333H6.41636V5.91667ZM3.54136 4.375H4.70803C4.79969 4.375 4.87469 4.3 4.87469 4.20833V3.04167C4.87469 2.95 4.79969 2.875 4.70803 2.875H3.54136C3.44969 2.875 3.37469 2.95 3.37469 3.04167V4.20833C3.37469 4.3 3.44969 4.375 3.54136 4.375ZM7.58303 8.75H0.666361C0.574695 8.75 0.499695 8.825 0.499695 8.91667V15.3333C0.499695 15.7021 0.797611 16 1.16636 16H7.58303C7.6747 16 7.74969 15.925 7.74969 15.8333V8.91667C7.74969 8.825 7.6747 8.75 7.58303 8.75ZM6.41636 14.6667H1.83303V10.0833H6.41636V14.6667ZM3.54136 13.125H4.70803C4.79969 13.125 4.87469 13.05 4.87469 12.9583V11.7917C4.87469 11.7 4.79969 11.625 4.70803 11.625H3.54136C3.44969 11.625 3.37469 11.7 3.37469 11.7917V12.9583C3.37469 13.05 3.44969 13.125 3.54136 13.125ZM15.833 0H9.41636C9.32469 0 9.24969 0.075 9.24969 0.166667V7.08333C9.24969 7.175 9.32469 7.25 9.41636 7.25H16.333C16.4247 7.25 16.4997 7.175 16.4997 7.08333V0.666667C16.4997 0.297917 16.2018 0 15.833 0ZM15.1664 5.91667H10.583V1.33333H15.1664V5.91667ZM12.2914 4.375H13.458C13.5497 4.375 13.6247 4.3 13.6247 4.20833V3.04167C13.6247 2.95 13.5497 2.875 13.458 2.875H12.2914C12.1997 2.875 12.1247 2.95 12.1247 3.04167V4.20833C12.1247 4.3 12.1997 4.375 12.2914 4.375ZM16.333 8.75H15.333C15.2414 8.75 15.1664 8.825 15.1664 8.91667V11.7083H13.5414V8.91667C13.5414 8.825 13.4664 8.75 13.3747 8.75H9.41636C9.32469 8.75 9.24969 8.825 9.24969 8.91667V15.8333C9.24969 15.925 9.32469 16 9.41636 16H10.4164C10.508 16 10.583 15.925 10.583 15.8333V10.75H12.208V12.875C12.208 12.9667 12.283 13.0417 12.3747 13.0417H16.333C16.4247 13.0417 16.4997 12.9667 16.4997 12.875V8.91667C16.4997 8.825 16.4247 8.75 16.333 8.75ZM13.3747 14.6667H12.3747C12.283 14.6667 12.208 14.7417 12.208 14.8333V15.8333C12.208 15.925 12.283 16 12.3747 16H13.3747C13.4664 16 13.5414 15.925 13.5414 15.8333V14.8333C13.5414 14.7417 13.4664 14.6667 13.3747 14.6667ZM16.333 14.6667H15.333C15.2414 14.6667 15.1664 14.7417 15.1664 14.8333V15.8333C15.1664 15.925 15.2414 16 15.333 16H16.333C16.4247 16 16.4997 15.925 16.4997 15.8333V14.8333C16.4997 14.7417 16.4247 14.6667 16.333 14.6667Z" fill="#FF7A00"/>
</svg>