<svg xmlns="http://www.w3.org/2000/svg" width="32" height="32" viewBox="0 0 32 32" fill="none">
  <g clip-path="url(#clip0_1668_31766)">
    <path d="M16.0179 11.6639C14.95 11.6639 13.95 12.0782 13.1929 12.8353C12.4393 13.5925 12.0214 14.5925 12.0214 15.6603C12.0214 16.7282 12.4393 17.7282 13.1929 18.4853C13.95 19.2389 14.95 19.6568 16.0179 19.6568C17.0857 19.6568 18.0857 19.2389 18.8429 18.4853C19.5964 17.7282 20.0143 16.7282 20.0143 15.6603C20.0143 14.5925 19.5964 13.5925 18.8429 12.8353C18.4731 12.4627 18.0329 12.1672 17.5479 11.9661C17.063 11.765 16.5429 11.6623 16.0179 11.6639ZM30.7429 20.0746L28.4072 18.0782C28.5179 17.3996 28.575 16.7068 28.575 16.0175C28.575 15.3282 28.5179 14.6318 28.4072 13.9568L30.7429 11.9603C30.9193 11.8093 31.0456 11.6081 31.1049 11.3835C31.1643 11.159 31.1538 10.9217 31.075 10.7032L31.0429 10.6103C30.4001 8.81279 29.4369 7.14659 28.2 5.69247L28.1357 5.61747C27.9855 5.44087 27.7854 5.31392 27.5616 5.25335C27.3378 5.19278 27.1009 5.20144 26.8822 5.27818L23.9822 6.31032C22.9107 5.43175 21.7179 4.7389 20.425 4.25675L19.8643 1.22461C19.822 0.996189 19.7112 0.786047 19.5466 0.622102C19.382 0.458156 19.1715 0.348169 18.9429 0.306752L18.8464 0.288895C16.9893 -0.0468192 15.0322 -0.0468192 13.175 0.288895L13.0786 0.306752C12.85 0.348169 12.6394 0.458156 12.4749 0.622102C12.3103 0.786047 12.1995 0.996189 12.1572 1.22461L11.5929 4.27104C10.3123 4.75702 9.11928 5.4482 8.06073 6.31747L5.1393 5.27818C4.92061 5.20083 4.68356 5.19186 4.45964 5.25247C4.23573 5.31307 4.03556 5.44037 3.88573 5.61747L3.82145 5.69247C2.58678 7.14815 1.62384 8.81392 0.978589 10.6103L0.946446 10.7032C0.785732 11.1496 0.917875 11.6496 1.27859 11.9603L3.64287 13.9782C3.53216 14.6496 3.47859 15.3353 3.47859 16.0139C3.47859 16.6996 3.53216 17.3853 3.64287 18.0496L1.28573 20.0675C1.10929 20.2185 0.983005 20.4197 0.923674 20.6443C0.864344 20.8688 0.874778 21.1061 0.953589 21.3246L0.985731 21.4175C1.63216 23.2139 2.58573 24.8746 3.82859 26.3353L3.89287 26.4103C4.04307 26.5869 4.24325 26.7139 4.46703 26.7744C4.6908 26.835 4.92768 26.8264 5.14645 26.7496L8.06787 25.7103C9.13216 26.5853 10.3179 27.2782 11.6 27.7568L12.1643 30.8032C12.2066 31.0316 12.3174 31.2417 12.482 31.4057C12.6466 31.5696 12.8571 31.6796 13.0857 31.721L13.1822 31.7389C15.0576 32.0764 16.9782 32.0764 18.8536 31.7389L18.95 31.721C19.1786 31.6796 19.3892 31.5696 19.5538 31.4057C19.7183 31.2417 19.8291 31.0316 19.8714 30.8032L20.4322 27.771C21.725 27.2853 22.9179 26.596 23.9893 25.7175L26.8893 26.7496C27.108 26.827 27.3451 26.8359 27.569 26.7753C27.7929 26.7147 27.993 26.5874 28.1429 26.4103L28.2072 26.3353C29.45 24.8675 30.4036 23.2139 31.05 21.4175L31.0822 21.3246C31.2357 20.8818 31.1036 20.3853 30.7429 20.0746ZM16.0179 21.9389C12.55 21.9389 9.7393 19.1282 9.7393 15.6603C9.7393 12.1925 12.55 9.38175 16.0179 9.38175C19.4857 9.38175 22.2964 12.1925 22.2964 15.6603C22.2964 19.1282 19.4857 21.9389 16.0179 21.9389Z" fill="#FF7A00"/>
  </g>
  <defs>
    <clipPath id="clip0_1668_31766">
      <rect width="32" height="32" fill="white"/>
    </clipPath>
  </defs>
</svg>