<svg xmlns="http://www.w3.org/2000/svg" width="24" height="24" viewBox="0 0 24 24" fill="none">
  <path d="M13.0966 23.6673H10.8916C10.3718 23.6673 9.87323 23.4608 9.50566 23.0932C9.13808 22.7257 8.93159 22.2271 8.93159 21.7073V20.4356C8.92527 20.3607 8.89778 20.2891 8.85234 20.2292C8.8069 20.1693 8.74537 20.1236 8.67492 20.0973C8.60353 20.0516 8.52053 20.0273 8.43575 20.0273C8.35097 20.0273 8.26797 20.0516 8.19658 20.0973L7.33325 21.0306C7.15216 21.213 6.93677 21.3578 6.6995 21.4565C6.46223 21.5553 6.20776 21.6061 5.95075 21.6061C5.69374 21.6061 5.43928 21.5553 5.202 21.4565C4.96473 21.3578 4.74935 21.213 4.56825 21.0306L2.96992 19.4673C2.78491 19.2866 2.63797 19.0706 2.53778 18.8322C2.4376 18.5937 2.38619 18.3376 2.38659 18.079C2.38733 17.5499 2.59699 17.0426 2.96992 16.6673L3.83325 15.804C3.87493 15.7397 3.89711 15.6648 3.89711 15.5882C3.89711 15.5115 3.87493 15.4366 3.83325 15.3723C3.76325 15.1973 3.64658 15.069 3.48325 15.069H2.29325C1.77236 15.0659 1.27385 14.8568 0.906609 14.4874C0.539369 14.118 0.333243 13.6182 0.333252 13.0973V10.8923C0.333252 10.3725 0.539751 9.87396 0.907323 9.50639C1.27489 9.13882 1.77343 8.93232 2.29325 8.93232H3.56492C3.63984 8.926 3.71142 8.89852 3.77133 8.85307C3.83123 8.80763 3.87698 8.7461 3.90325 8.67565C3.94899 8.60427 3.9733 8.52126 3.9733 8.43648C3.9733 8.3517 3.94899 8.2687 3.90325 8.19732L2.96992 7.33398C2.78755 7.15289 2.64281 6.9375 2.54405 6.70023C2.44528 6.46296 2.39443 6.20849 2.39443 5.95148C2.39443 5.69448 2.44528 5.44001 2.54405 5.20274C2.64281 4.96546 2.78755 4.75008 2.96992 4.56898L4.53325 2.97065C4.71222 2.78652 4.92621 2.64005 5.16264 2.53987C5.39906 2.43969 5.65314 2.38782 5.90992 2.38732C6.17387 2.38616 6.43546 2.43709 6.6797 2.53719C6.92394 2.63728 7.14603 2.78459 7.33325 2.97065L8.19658 3.83398C8.26085 3.87566 8.33582 3.89784 8.41242 3.89784C8.48902 3.89784 8.56398 3.87566 8.62825 3.83398C8.80325 3.76398 8.93159 3.64732 8.93159 3.48398V2.29398C8.93467 1.77309 9.14376 1.27458 9.51318 0.907341C9.88261 0.540102 10.3823 0.333975 10.9033 0.333984H13.1666C13.6864 0.333984 14.1849 0.540484 14.5525 0.908055C14.9201 1.27563 15.1266 1.77416 15.1266 2.29398V3.56565C15.1329 3.64057 15.1604 3.71216 15.2058 3.77206C15.2513 3.83196 15.3128 3.87771 15.3833 3.90398C15.4546 3.94972 15.5376 3.97403 15.6224 3.97403C15.7072 3.97403 15.7902 3.94972 15.8616 3.90398L16.6666 2.97065C16.8477 2.78828 17.0631 2.64355 17.3003 2.54478C17.5376 2.44601 17.7921 2.39516 18.0491 2.39516C18.3061 2.39516 18.5606 2.44601 18.7978 2.54478C19.0351 2.64355 19.2505 2.78828 19.4316 2.97065L21.0299 4.53398C21.2144 4.71512 21.361 4.93116 21.4611 5.16951C21.5613 5.40787 21.613 5.66378 21.6133 5.92232C21.6189 6.18516 21.57 6.44632 21.4695 6.68929C21.3691 6.93227 21.2194 7.15179 21.0299 7.33398L20.1666 8.19732C20.1249 8.26159 20.1027 8.33655 20.1027 8.41315C20.1027 8.48975 20.1249 8.56471 20.1666 8.62898C20.2366 8.80398 20.3533 8.93232 20.5166 8.93232H21.7882C22.2948 8.95632 22.7727 9.1746 23.1225 9.54179C23.4723 9.90898 23.6672 10.3968 23.6666 10.904V13.1673C23.6666 13.6871 23.4601 14.1857 23.0925 14.5532C22.7249 14.9208 22.2264 15.1273 21.7066 15.1273H20.4349C20.36 15.1336 20.2884 15.1611 20.2285 15.2066C20.1686 15.252 20.1229 15.3135 20.0966 15.384C20.0549 15.4483 20.0327 15.5232 20.0327 15.5998C20.0327 15.6764 20.0549 15.7514 20.0966 15.8157L20.9949 16.714C21.1773 16.8951 21.322 17.1105 21.4208 17.3477C21.5196 17.585 21.5704 17.8395 21.5704 18.0965C21.5704 18.3535 21.5196 18.608 21.4208 18.8452C21.322 19.0825 21.1773 19.2979 20.9949 19.479L19.4666 21.0306C19.2876 21.2148 19.0736 21.3613 18.8372 21.4614C18.6008 21.5616 18.3467 21.6135 18.0899 21.614C17.569 21.6071 17.0711 21.398 16.7016 21.0306L15.8033 20.1673C15.739 20.1256 15.664 20.1035 15.5874 20.1035C15.5108 20.1035 15.4359 20.1256 15.3716 20.1673C15.1966 20.2373 15.0683 20.354 15.0683 20.5173V21.789C15.0442 22.2956 14.826 22.7734 14.4588 23.1232C14.0916 23.473 13.6037 23.6679 13.0966 23.6673ZM11.2649 21.334H12.7349V20.4356C12.7399 19.8976 12.9044 19.3732 13.2076 18.9288C13.5108 18.4843 13.9391 18.1399 14.4383 17.939C14.9394 17.7199 15.4945 17.6551 16.0326 17.7527C16.5708 17.8504 17.0677 18.1061 17.4599 18.4873L18.0899 19.1173L19.1166 18.0907L18.4866 17.449C18.1078 17.0627 17.8523 16.5725 17.7526 16.0408C17.6529 15.509 17.7135 14.9596 17.9266 14.4623C18.1293 13.9654 18.4745 13.5396 18.9188 13.2385C19.3631 12.9375 19.8866 12.7747 20.4233 12.7707H21.3333V11.2657H20.4349C19.8969 11.2607 19.3725 11.0962 18.928 10.793C18.4836 10.4897 18.1391 10.0614 17.9383 9.56232C17.7192 9.06115 17.6543 8.5061 17.752 7.96793C17.8497 7.42977 18.1054 6.93289 18.4866 6.54065L19.1166 5.91065L18.0899 4.88398L17.4483 5.51398C17.0559 5.87234 16.5694 6.11114 16.0459 6.20226C15.5224 6.29338 14.9838 6.23303 14.4935 6.02832C14.0031 5.82361 13.5815 5.48305 13.2782 5.04675C12.9749 4.61046 12.8026 4.09659 12.7816 3.56565V2.66732H11.2649V3.56565C11.2599 4.10366 11.0954 4.62809 10.7922 5.07253C10.489 5.51698 10.0607 5.86145 9.56158 6.06232C9.06042 6.28138 8.50536 6.34622 7.9672 6.24856C7.42904 6.1509 6.93216 5.89517 6.53992 5.51398L5.90992 4.88398L4.88325 5.91065L5.51325 6.55232C5.87161 6.94464 6.11041 7.43118 6.20153 7.95467C6.29265 8.47815 6.2323 9.01677 6.02759 9.5071C5.82287 9.99743 5.48232 10.4191 5.04602 10.7224C4.60972 11.0256 4.09585 11.1979 3.56492 11.219H2.66659V12.689H3.56492C4.10292 12.694 4.62735 12.8585 5.0718 13.1617C5.51624 13.4649 5.86071 13.8932 6.06158 14.3923C6.28065 14.8935 6.34549 15.4485 6.24783 15.9867C6.15017 16.5249 5.89444 17.0217 5.51325 17.414L4.88325 18.044L5.90992 19.0707L6.55159 18.4407C6.94391 18.0823 7.43045 17.8435 7.95393 17.7524C8.47742 17.6613 9.01603 17.7216 9.50637 17.9263C9.9967 18.131 10.4183 18.4716 10.7216 18.9079C11.0249 19.3442 11.1972 19.858 11.2183 20.389L11.2649 21.334Z" fill="white"/>
  <path d="M11.9998 16.0846C11.1922 16.0846 10.4028 15.8452 9.73126 15.3965C9.05976 14.9478 8.53639 14.3101 8.22733 13.5639C7.91827 12.8178 7.83741 11.9968 7.99497 11.2047C8.15252 10.4126 8.54142 9.68502 9.11249 9.11395C9.68355 8.54289 10.4111 8.15399 11.2032 7.99643C11.9953 7.83887 12.8163 7.91974 13.5625 8.2288C14.3086 8.53785 14.9463 9.06122 15.395 9.73273C15.8437 10.4042 16.0832 11.1937 16.0832 12.0013C16.0832 13.0843 15.653 14.1229 14.8872 14.8887C14.1214 15.6544 13.0828 16.0846 11.9998 16.0846ZM11.9998 10.2513C11.6537 10.2513 11.3154 10.3539 11.0276 10.5462C10.7398 10.7385 10.5155 11.0118 10.3831 11.3316C10.2506 11.6514 10.2159 12.0032 10.2835 12.3427C10.351 12.6822 10.5177 12.994 10.7624 13.2387C11.0071 13.4835 11.319 13.6502 11.6584 13.7177C11.9979 13.7852 12.3498 13.7505 12.6695 13.6181C12.9893 13.4856 13.2626 13.2613 13.4549 12.9736C13.6472 12.6858 13.7498 12.3474 13.7498 12.0013C13.7498 11.5372 13.5655 11.0921 13.2373 10.7639C12.9091 10.4357 12.464 10.2513 11.9998 10.2513Z" fill="white"/>
</svg>