<svg xmlns="http://www.w3.org/2000/svg" width="16" height="16" viewBox="0 0 16 16" fill="none">
  <path d="M13.9982 9.42815H1.57146C1.49289 9.42815 1.4286 9.49244 1.4286 9.57101V10.6424C1.4286 10.721 1.49289 10.7853 1.57146 10.7853H12.3786L9.80182 14.0532C9.7286 14.146 9.79467 14.2853 9.91432 14.2853H11.209C11.2965 14.2853 11.3786 14.246 11.434 14.1764L14.4482 10.3532C14.7429 9.97815 14.4768 9.42815 13.9982 9.42815ZM14.4286 5.21387H3.62146L6.19824 1.94601C6.27146 1.85315 6.20539 1.71387 6.08574 1.71387H4.7911C4.7036 1.71387 4.62146 1.75315 4.5661 1.8228L1.55182 5.64601C1.25717 6.02101 1.52324 6.57101 2.00003 6.57101H14.4286C14.5072 6.57101 14.5715 6.50672 14.5715 6.42815V5.35672C14.5715 5.27815 14.5072 5.21387 14.4286 5.21387Z" fill="#FF7A00"/>
</svg>