<svg xmlns="http://www.w3.org/2000/svg" width="16" height="17" viewBox="0 0 16 17" fill="none">
  <path d="M8 0.5C3.58214 0.5 0 4.08214 0 8.5C0 12.9179 3.58214 16.5 8 16.5C12.4179 16.5 16 12.9179 16 8.5C16 4.08214 12.4179 0.5 8 0.5ZM11.1518 10.9589L10.6411 11.6554C10.63 11.6705 10.616 11.6833 10.5999 11.6931C10.5838 11.7028 10.566 11.7093 10.5474 11.7121C10.5288 11.7149 10.5098 11.714 10.4916 11.7095C10.4733 11.705 10.4562 11.6969 10.4411 11.6857L7.4875 9.53214C7.4691 9.51893 7.45414 9.50149 7.44389 9.48129C7.43363 9.46109 7.42838 9.43872 7.42857 9.41607V4.5C7.42857 4.42143 7.49286 4.35714 7.57143 4.35714H8.43036C8.50893 4.35714 8.57321 4.42143 8.57321 4.5V8.91964L11.1196 10.7607C11.1839 10.8054 11.1982 10.8946 11.1518 10.9589Z" fill="#FF7A00"/>
</svg>