<svg xmlns="http://www.w3.org/2000/svg" width="16" height="17" viewBox="0 0 16 17" fill="none">
  <path d="M3.04 2.12712H12.96C13.048 2.12712 13.12 2.04576 13.12 1.94633V0.680791C13.12 0.581356 13.048 0.5 12.96 0.5H3.04C2.952 0.5 2.88 0.581356 2.88 0.680791V1.94633C2.88 2.04576 2.952 2.12712 3.04 2.12712ZM12.96 11.709C13.048 11.709 13.12 11.6277 13.12 11.5282V10.2627C13.12 10.1633 13.048 10.0819 12.96 10.0819H3.04C2.952 10.0819 2.88 10.1633 2.88 10.2627V11.5282C2.88 11.6277 2.952 11.709 3.04 11.709H12.96ZM15.84 14.8729H0.16C0.072 14.8729 0 14.9542 0 15.0537V16.3192C0 16.4186 0.072 16.5 0.16 16.5H15.84C15.928 16.5 16 16.4186 16 16.3192V15.0537C16 14.9542 15.928 14.8729 15.84 14.8729ZM15.84 5.29096H0.16C0.072 5.29096 0 5.37232 0 5.47175V6.73729C0 6.83672 0.072 6.91808 0.16 6.91808H15.84C15.928 6.91808 16 6.83672 16 6.73729V5.47175C16 5.37232 15.928 5.29096 15.84 5.29096Z" fill="#FF7A00"/>
</svg>