<svg xmlns="http://www.w3.org/2000/svg" width="19" height="18" viewBox="0 0 19 18" fill="none">
  <path d="M9.3484 12.8097C9.3664 12.8341 9.38941 12.8539 9.41568 12.8675C9.44195 12.8811 9.47078 12.8881 9.5 12.8881C9.52922 12.8881 9.55805 12.8811 9.58432 12.8675C9.61059 12.8539 9.6336 12.8341 9.6516 12.8097L12.3468 9.18665C12.4455 9.05369 12.3564 8.85682 12.1952 8.85682H10.412V0.204545C10.412 0.0920454 10.3254 0 10.2195 0H8.77567C8.66979 0 8.58315 0.0920454 8.58315 0.204545V8.85426H6.80481C6.64358 8.85426 6.55455 9.05114 6.65321 9.18409L9.3484 12.8097ZM18.3075 11.9148H16.8636C16.7578 11.9148 16.6711 12.0068 16.6711 12.1193V16.0568H2.32888V12.1193C2.32888 12.0068 2.24225 11.9148 2.13636 11.9148H0.692513C0.586631 11.9148 0.5 12.0068 0.5 12.1193V17.1818C0.5 17.6344 0.844118 18 1.27005 18H17.7299C18.1559 18 18.5 17.6344 18.5 17.1818V12.1193C18.5 12.0068 18.4134 11.9148 18.3075 11.9148Z" fill="#FF7A00"/>
</svg>