<svg xmlns="http://www.w3.org/2000/svg" width="19" height="18" viewBox="0 0 19 18" fill="none">
  <path d="M6.80481 4.03348H8.58315V12.6823C8.58315 12.7948 8.66979 12.8869 8.77567 12.8869H10.2195C10.3254 12.8869 10.412 12.7948 10.412 12.6823V4.03348H12.1952C12.3564 4.03348 12.4455 3.83663 12.3468 3.70368L9.6516 0.0784735C9.6336 0.0540282 9.61059 0.0342583 9.58432 0.0206621C9.55805 0.00706589 9.52922 0 9.5 0C9.47078 0 9.44195 0.00706589 9.41568 0.0206621C9.38941 0.0342583 9.3664 0.0540282 9.3484 0.0784735L6.65321 3.70113C6.55455 3.83663 6.64358 4.03348 6.80481 4.03348ZM18.3075 11.9154H16.8636C16.7578 11.9154 16.6711 12.0074 16.6711 12.1199V16.057H2.32888V12.1199C2.32888 12.0074 2.24225 11.9154 2.13636 11.9154H0.692513C0.586631 11.9154 0.5 12.0074 0.5 12.1199V17.1819C0.5 17.6344 0.844118 18 1.27005 18H17.7299C18.1559 18 18.5 17.6344 18.5 17.1819V12.1199C18.5 12.0074 18.4134 11.9154 18.3075 11.9154Z" fill="#FF7A00"/>
</svg>