<svg width="48" height="48" viewBox="0 0 48 48" fill="none" xmlns="http://www.w3.org/2000/svg">
<g clip-path="url(#clip0_1054_28362)">
<path d="M24 0C10.7464 0 0 10.7464 0 24C0 37.2536 10.7464 48 24 48C37.2536 48 48 37.2536 48 24C48 10.7464 37.2536 0 24 0ZM24 43.9286C12.9964 43.9286 4.07143 35.0036 4.07143 24C4.07143 12.9964 12.9964 4.07143 24 4.07143C35.0036 4.07143 43.9286 12.9964 43.9286 24C43.9286 35.0036 35.0036 43.9286 24 43.9286Z" fill="#FF7A00"/>
<path d="M21.4287 33.4286C21.4287 34.1106 21.6996 34.7646 22.1819 35.2468C22.6641 35.7291 23.3182 36 24.0001 36C24.6821 36 25.3362 35.7291 25.8184 35.2468C26.3007 34.7646 26.5716 34.1106 26.5716 33.4286C26.5716 32.7466 26.3007 32.0925 25.8184 31.6103C25.3362 31.1281 24.6821 30.8571 24.0001 30.8571C23.3182 30.8571 22.6641 31.1281 22.1819 31.6103C21.6996 32.0925 21.4287 32.7466 21.4287 33.4286ZM22.7144 27.4286H25.2859C25.5216 27.4286 25.7144 27.2357 25.7144 27V12.4286C25.7144 12.1929 25.5216 12 25.2859 12H22.7144C22.4787 12 22.2859 12.1929 22.2859 12.4286V27C22.2859 27.2357 22.4787 27.4286 22.7144 27.4286Z" fill="#FF7A00"/>
</g>
<defs>
<clipPath id="clip0_1054_28362">
<rect width="48" height="48" fill="white"/>
</clipPath>
</defs>
</svg>
