<svg width="132" height="32" viewBox="0 0 132 32" fill="none" xmlns="http://www.w3.org/2000/svg">
<path d="M1.5 28V4.72727H17.8636V9.81818H7.81818V13.8182H16.8636V18.9091H7.81818V28H1.5ZM24.767 28.2727C23.6534 28.2727 22.6686 28.0909 21.8125 27.7273C20.964 27.3561 20.2973 26.7955 19.8125 26.0455C19.3277 25.2955 19.0852 24.3409 19.0852 23.1818C19.0852 22.2273 19.2481 21.4129 19.5739 20.7386C19.8996 20.0568 20.3542 19.5 20.9375 19.0682C21.5208 18.6364 22.1989 18.3068 22.9716 18.0795C23.7519 17.8523 24.5928 17.7045 25.4943 17.6364C26.4716 17.5606 27.2557 17.4697 27.8466 17.3636C28.4451 17.25 28.8769 17.0947 29.142 16.8977C29.4072 16.6932 29.5398 16.4242 29.5398 16.0909V16.0455C29.5398 15.5909 29.3655 15.2424 29.017 15C28.6686 14.7576 28.2216 14.6364 27.6761 14.6364C27.0777 14.6364 26.589 14.7689 26.2102 15.0341C25.839 15.2917 25.6155 15.6894 25.5398 16.2273H19.767C19.8428 15.1667 20.1799 14.1894 20.7784 13.2955C21.3845 12.3939 22.267 11.6742 23.4261 11.1364C24.5852 10.5909 26.0322 10.3182 27.767 10.3182C29.017 10.3182 30.1383 10.4659 31.1307 10.7614C32.1231 11.0492 32.9678 11.4545 33.6648 11.9773C34.3617 12.4924 34.892 13.0985 35.2557 13.7955C35.6269 14.4848 35.8125 15.2348 35.8125 16.0455V28H29.9489V25.5455H29.8125C29.464 26.197 29.0398 26.7235 28.5398 27.125C28.0473 27.5265 27.483 27.8182 26.8466 28C26.2178 28.1818 25.5246 28.2727 24.767 28.2727ZM26.8125 24.3182C27.2898 24.3182 27.7367 24.2197 28.1534 24.0227C28.5777 23.8258 28.9223 23.5417 29.1875 23.1705C29.4527 22.7992 29.5852 22.3485 29.5852 21.8182V20.3636C29.4186 20.4318 29.2405 20.4962 29.0511 20.5568C28.8693 20.6174 28.6723 20.6742 28.4602 20.7273C28.2557 20.7803 28.036 20.8295 27.8011 20.875C27.5739 20.9205 27.3352 20.9621 27.0852 21C26.6004 21.0758 26.2027 21.2008 25.892 21.375C25.589 21.5417 25.3617 21.75 25.2102 22C25.0663 22.2424 24.9943 22.5152 24.9943 22.8182C24.9943 23.303 25.1648 23.6742 25.5057 23.9318C25.8466 24.1894 26.2822 24.3182 26.8125 24.3182ZM47.2188 28.3182C45.3248 28.3182 43.7036 27.9432 42.3551 27.1932C41.0066 26.4356 39.9725 25.3826 39.2528 24.0341C38.5331 22.678 38.1733 21.1061 38.1733 19.3182C38.1733 17.5303 38.5331 15.9621 39.2528 14.6136C39.9725 13.2576 41.0066 12.2045 42.3551 11.4545C43.7036 10.697 45.3248 10.3182 47.2188 10.3182C48.9309 10.3182 50.4119 10.6288 51.6619 11.25C52.9195 11.8636 53.893 12.7348 54.5824 13.8636C55.2718 14.9848 55.6203 16.303 55.6278 17.8182H49.8097C49.7263 16.9015 49.4612 16.2045 49.0142 15.7273C48.5748 15.2424 48.0066 15 47.3097 15C46.7642 15 46.2869 15.1591 45.8778 15.4773C45.4688 15.7879 45.1506 16.2614 44.9233 16.8977C44.696 17.5265 44.5824 18.3182 44.5824 19.2727C44.5824 20.2273 44.696 21.0227 44.9233 21.6591C45.1506 22.2879 45.4688 22.7614 45.8778 23.0795C46.2869 23.3902 46.7642 23.5455 47.3097 23.5455C47.7718 23.5455 48.1809 23.4394 48.5369 23.2273C48.893 23.0076 49.1809 22.6894 49.4006 22.2727C49.6278 21.8485 49.7642 21.3333 49.8097 20.7273H55.6278C55.6051 22.2652 55.2528 23.6061 54.571 24.75C53.8892 25.8864 52.9233 26.7652 51.6733 27.3864C50.4309 28.0076 48.946 28.3182 47.2188 28.3182ZM66.5795 28.3182C64.7159 28.3182 63.1098 27.9621 61.7614 27.25C60.4205 26.5303 59.3864 25.5 58.6591 24.1591C57.9394 22.8106 57.5795 21.197 57.5795 19.3182C57.5795 17.5152 57.9432 15.9394 58.6705 14.5909C59.3977 13.2424 60.4242 12.1932 61.75 11.4432C63.0758 10.6932 64.6402 10.3182 66.4432 10.3182C67.7614 10.3182 68.9545 10.5227 70.0227 10.9318C71.0909 11.3409 72.0038 11.9356 72.7614 12.7159C73.5189 13.4886 74.1023 14.428 74.5114 15.5341C74.9205 16.6402 75.125 17.8864 75.125 19.2727V20.7273H59.5341V17.2727H69.3523C69.3447 16.7727 69.2159 16.3333 68.9659 15.9545C68.7235 15.5682 68.3939 15.2689 67.9773 15.0568C67.5682 14.8371 67.1023 14.7273 66.5795 14.7273C66.072 14.7273 65.6061 14.8371 65.1818 15.0568C64.7576 15.2689 64.4167 15.5644 64.1591 15.9432C63.9091 16.322 63.7765 16.7652 63.7614 17.2727V21C63.7614 21.5606 63.8788 22.0606 64.1136 22.5C64.3485 22.9394 64.6856 23.2841 65.125 23.5341C65.5644 23.7841 66.0947 23.9091 66.7159 23.9091C67.1477 23.9091 67.5417 23.8485 67.8977 23.7273C68.2614 23.6061 68.572 23.4318 68.8295 23.2045C69.0871 22.9697 69.2765 22.6894 69.3977 22.3636H75.125C74.928 23.5758 74.4621 24.6288 73.7273 25.5227C72.9924 26.4091 72.0189 27.0985 70.8068 27.5909C69.6023 28.0758 68.1932 28.3182 66.5795 28.3182ZM97.7301 4.72727V28H92.4574L84.0483 15.7727H83.9119V28H77.5938V4.72727H82.9574L91.2301 16.9091H91.4119V4.72727H97.7301ZM109.173 28.3182C107.31 28.3182 105.704 27.9621 104.355 27.25C103.014 26.5303 101.98 25.5 101.253 24.1591C100.533 22.8106 100.173 21.197 100.173 19.3182C100.173 17.5152 100.537 15.9394 101.264 14.5909C101.991 13.2424 103.018 12.1932 104.344 11.4432C105.67 10.6932 107.234 10.3182 109.037 10.3182C110.355 10.3182 111.548 10.5227 112.616 10.9318C113.685 11.3409 114.598 11.9356 115.355 12.7159C116.113 13.4886 116.696 14.428 117.105 15.5341C117.514 16.6402 117.719 17.8864 117.719 19.2727V20.7273H102.128V17.2727H111.946C111.938 16.7727 111.81 16.3333 111.56 15.9545C111.317 15.5682 110.988 15.2689 110.571 15.0568C110.162 14.8371 109.696 14.7273 109.173 14.7273C108.666 14.7273 108.2 14.8371 107.776 15.0568C107.351 15.2689 107.01 15.5644 106.753 15.9432C106.503 16.322 106.37 16.7652 106.355 17.2727V21C106.355 21.5606 106.473 22.0606 106.707 22.5C106.942 22.9394 107.279 23.2841 107.719 23.5341C108.158 23.7841 108.688 23.9091 109.31 23.9091C109.741 23.9091 110.135 23.8485 110.491 23.7273C110.855 23.6061 111.166 23.4318 111.423 23.2045C111.681 22.9697 111.87 22.6894 111.991 22.3636H117.719C117.522 23.5758 117.056 24.6288 116.321 25.5227C115.586 26.4091 114.613 27.0985 113.401 27.5909C112.196 28.0758 110.787 28.3182 109.173 28.3182ZM130.688 10.5455V15.0909H119.188V10.5455H130.688ZM121.415 6.36364H127.688V22.3864C127.688 22.6288 127.729 22.8333 127.812 23C127.896 23.1591 128.025 23.2803 128.199 23.3636C128.373 23.4394 128.597 23.4773 128.869 23.4773C129.059 23.4773 129.278 23.4545 129.528 23.4091C129.786 23.3636 129.975 23.3258 130.097 23.2955L131.006 27.7045C130.725 27.7879 130.324 27.8902 129.801 28.0114C129.286 28.1326 128.672 28.2121 127.96 28.25C126.521 28.3258 125.313 28.178 124.335 27.8068C123.358 27.428 122.623 26.8333 122.131 26.0227C121.638 25.2121 121.4 24.197 121.415 22.9773V6.36364Z" fill="white"/>
</svg>
