<svg xmlns="http://www.w3.org/2000/svg" width="17" height="16" viewBox="0 0 17 16" fill="none">
  <g clip-path="url(#clip0_861_23506)">
    <path d="M9.793 0H4.5C3.96957 0 3.46086 0.210714 3.08579 0.585786C2.71071 0.960859 2.5 1.46957 2.5 2V14C2.5 14.5304 2.71071 15.0391 3.08579 15.4142C3.46086 15.7893 3.96957 16 4.5 16H12.5C13.0304 16 13.5391 15.7893 13.9142 15.4142C14.2893 15.0391 14.5 14.5304 14.5 14V4.707C14.4999 4.4418 14.3945 4.18749 14.207 4L10.5 0.293C10.3125 0.105451 10.0582 5.66374e-05 9.793 0ZM10 3.5V1.5L13 4.5H11C10.7348 4.5 10.4804 4.39464 10.2929 4.20711C10.1054 4.01957 10 3.76522 10 3.5ZM11.354 7.854L8.354 10.854C8.30755 10.9006 8.25238 10.9375 8.19163 10.9627C8.13089 10.9879 8.06577 11.0009 8 11.0009C7.93423 11.0009 7.86911 10.9879 7.80837 10.9627C7.74762 10.9375 7.69245 10.9006 7.646 10.854L6.146 9.354C6.09951 9.30751 6.06264 9.25232 6.03748 9.19158C6.01232 9.13084 5.99937 9.06574 5.99937 9C5.99937 8.93426 6.01232 8.86916 6.03748 8.80842C6.06264 8.74768 6.09951 8.69249 6.146 8.646C6.23989 8.55211 6.36722 8.49937 6.5 8.49937C6.56574 8.49937 6.63084 8.51232 6.69158 8.53748C6.75232 8.56264 6.80751 8.59951 6.854 8.646L8 9.793L10.646 7.146C10.7399 7.05211 10.8672 6.99937 11 6.99937C11.1328 6.99937 11.2601 7.05211 11.354 7.146C11.4479 7.23989 11.5006 7.36722 11.5006 7.5C11.5006 7.63278 11.4479 7.76011 11.354 7.854Z" fill="#FF7A00"/>
  </g>
  <defs>
    <clipPath id="clip0_861_23506">
      <rect width="16" height="16" fill="white" transform="translate(0.5)"/>
    </clipPath>
  </defs>
</svg>