<svg xmlns="http://www.w3.org/2000/svg" width="17" height="16" viewBox="0 0 17 16" fill="none">
  <path d="M2.50024 7.98242C2.50024 8.11374 2.52611 8.24378 2.57636 8.36511C2.62662 8.48643 2.70028 8.59667 2.79314 8.68953C2.886 8.78239 2.99624 8.85605 3.11756 8.9063C3.23889 8.95656 3.36892 8.98242 3.50024 8.98242C3.63157 8.98242 3.7616 8.95656 3.88293 8.9063C4.00425 8.85605 4.11449 8.78239 4.20735 8.68953C4.30021 8.59667 4.37387 8.48643 4.42412 8.36511C4.47438 8.24378 4.50024 8.11374 4.50024 7.98242C4.50024 7.8511 4.47438 7.72106 4.42412 7.59974C4.37387 7.47841 4.30021 7.36817 4.20735 7.27531C4.11449 7.18246 4.00425 7.1088 3.88293 7.05854C3.7616 7.00829 3.63157 6.98242 3.50024 6.98242C3.36892 6.98242 3.23889 7.00829 3.11756 7.05854C2.99624 7.1088 2.886 7.18246 2.79314 7.27531C2.70028 7.36817 2.62662 7.47841 2.57636 7.59974C2.52611 7.72106 2.50024 7.8511 2.50024 7.98242ZM7.50024 7.98242C7.50024 8.24764 7.6056 8.50199 7.79314 8.68953C7.98067 8.87706 8.23503 8.98242 8.50024 8.98242C8.76546 8.98242 9.01981 8.87706 9.20735 8.68953C9.39489 8.50199 9.50024 8.24764 9.50024 7.98242C9.50024 7.71721 9.39489 7.46285 9.20735 7.27531C9.01981 7.08778 8.76546 6.98242 8.50024 6.98242C8.23503 6.98242 7.98067 7.08778 7.79314 7.27531C7.6056 7.46285 7.50024 7.71721 7.50024 7.98242ZM12.5002 7.98242C12.5002 8.24764 12.6056 8.50199 12.7931 8.68953C12.9807 8.87706 13.235 8.98242 13.5002 8.98242C13.7655 8.98242 14.0198 8.87706 14.2074 8.68953C14.3949 8.50199 14.5002 8.24764 14.5002 7.98242C14.5002 7.71721 14.3949 7.46285 14.2074 7.27531C14.0198 7.08778 13.7655 6.98242 13.5002 6.98242C13.235 6.98242 12.9807 7.08778 12.7931 7.27531C12.6056 7.46285 12.5002 7.71721 12.5002 7.98242Z" fill="#FF7A00"/>
</svg>