<svg xmlns="http://www.w3.org/2000/svg" width="16" height="16" viewBox="0 0 16 16" fill="none">
  <path d="M15.9645 0.685806C16.0009 0.594942 16.0098 0.495402 15.9901 0.399526C15.9704 0.303649 15.9231 0.215653 15.8539 0.146447C15.7847 0.0772403 15.6967 0.0298668 15.6008 0.0101994C15.5049 -0.0094681 15.4054 -0.000564594 15.3145 0.0358061L0.767506 5.85481H0.766506L0.314506 6.03481C0.228896 6.06895 0.154391 6.1261 0.0992213 6.19994C0.0440514 6.27377 0.0103636 6.36142 0.00187908 6.4532C-0.00660546 6.54497 0.0104435 6.63731 0.0511426 6.72001C0.0918417 6.8027 0.154607 6.87254 0.232506 6.92181L0.642506 7.18181L0.643506 7.18381L5.63851 10.3618L8.81651 15.3568L8.81851 15.3588L9.07851 15.7688C9.12793 15.8464 9.1978 15.9089 9.28044 15.9493C9.36307 15.9897 9.45527 16.0066 9.54687 15.998C9.63847 15.9894 9.72592 15.9558 9.79961 15.9007C9.87329 15.8456 9.93035 15.7712 9.96451 15.6858L15.9645 0.685806ZM14.1315 2.57581L6.63751 10.0698L6.42251 9.73181C6.38311 9.66978 6.33053 9.6172 6.26851 9.57781L5.93051 9.36281L13.4245 1.86881L14.6025 1.39781L14.1325 2.57581H14.1315Z" fill="#FF7A00"/>
</svg>